<svg xmlns="http://www.w3.org/2000/svg" width="16" height="15.969" viewBox="0 0 16 15.969">
  <metadata><?xpacket begin="﻿" id="W5M0MpCehiHzreSzNTczkc9d"?>
<x:xmpmeta xmlns:x="adobe:ns:meta/" x:xmptk="Adobe XMP Core 5.6-c138 79.159824, 2016/09/14-01:09:01        ">
   <rdf:RDF xmlns:rdf="http://www.w3.org/1999/02/22-rdf-syntax-ns#">
      <rdf:Description rdf:about=""/>
   </rdf:RDF>
</x:xmpmeta>
                                                                                                    
                                                                                                    
                                                                                                    
                                                                                                    
                                                                                                    
                                                                                                    
                                                                                                    
                                                                                                    
                                                                                                    
                                                                                                    
                                                                                                    
                                                                                                    
                                                                                                    
                                                                                                    
                                                                                                    
                                                                                                    
                                                                                                    
                                                                                                    
                                                                                                    
                                                                                                    
                           
<?xpacket end="w"?></metadata>
<defs>
    <style>
      .cls-1 {
        fill: #fff;
        fill-rule: evenodd;
      }
    </style>
  </defs>
  <path id="set" class="cls-1" d="M2603.55,826.969a5.962,5.962,0,0,1,0,2.064l1.24,1a0.542,0.542,0,0,1,.17.626l-0.01.046a7.8,7.8,0,0,1-1.51,2.463l-0.03.037a0.626,0.626,0,0,1-.66.17l-1.54-.516a6.526,6.526,0,0,1-1.88,1.028l-0.29,1.518a0.6,0.6,0,0,1-.49.459l-0.05.009a8.922,8.922,0,0,1-3,0l-0.05-.009a0.6,0.6,0,0,1-.49-0.459l-0.3-1.525a6.706,6.706,0,0,1-1.86-1.025l-1.55.52a0.623,0.623,0,0,1-.66-0.17l-0.03-.037a7.793,7.793,0,0,1-1.51-2.463l-0.01-.046a0.543,0.543,0,0,1,.17-0.629l1.25-1.011a6.536,6.536,0,0,1,0-2.039l-1.25-1.011a0.546,0.546,0,0,1-.17-0.629l0.01-.046a7.8,7.8,0,0,1,1.51-2.463l0.03-.038a0.623,0.623,0,0,1,.66-0.169l1.55,0.519a6.784,6.784,0,0,1,1.86-1.025l0.3-1.525a0.6,0.6,0,0,1,.49-0.459l0.05-.009a8.992,8.992,0,0,1,3,0l0.05,0.009a0.6,0.6,0,0,1,.49.459l0.29,1.518a6.577,6.577,0,0,1,1.88,1.029l1.54-.516a0.627,0.627,0,0,1,.66.169l0.03,0.038a7.76,7.76,0,0,1,1.51,2.463l0.01,0.046a0.544,0.544,0,0,1-.17.629Zm-0.85-2.958-1.75.588-0.6-.461a5.357,5.357,0,0,0-1.49-.818l-0.72-.255-0.34-1.733a7.507,7.507,0,0,0-1.6,0l-0.34,1.736-0.71.256a5.4,5.4,0,0,0-1.49.816l-0.59.463-1.76-.593a6.926,6.926,0,0,0-.81,1.314l1.43,1.152-0.12.714a4.75,4.75,0,0,0,0,1.625l0.12,0.715-1.43,1.152a6.989,6.989,0,0,0,.81,1.314l1.76-.593,0.59,0.463a5.4,5.4,0,0,0,1.49.816l0.71,0.259,0.34,1.736a7.507,7.507,0,0,0,1.6,0l0.34-1.733,0.72-.255a5.357,5.357,0,0,0,1.49-.818l0.59-.461,1.75,0.588a6.431,6.431,0,0,0,.81-1.315l-1.41-1.141,0.12-.716a4.273,4.273,0,0,0,0-1.646l-0.12-.713,1.41-1.141A6.948,6.948,0,0,0,2602.7,824.011Zm-5.7,6.956a3.148,3.148,0,1,1,3.32-3.143A3.237,3.237,0,0,1,2597,830.967Zm1.5-4.557a2.2,2.2,0,0,0-2.99,0,1.924,1.924,0,0,0,0,2.829,2.2,2.2,0,0,0,2.99,0A1.945,1.945,0,0,0,2598.5,826.41Z" transform="translate(-2589 -820.031)"/>
</svg>
